<svg width="18" height="18" viewBox="0 0 18 18" fill="none" xmlns="http://www.w3.org/2000/svg">
<path d="M14.3086 18H3.69141C1.65618 18 0 16.3438 0 14.3086C0 14.0171 0.235863 13.7812 0.527344 13.7812H17.4727C17.7641 13.7812 18 14.0171 18 14.3086C18 16.3438 16.3438 18 14.3086 18Z" fill="black"/>
<path d="M9 0C4.05668 0 0 3.07547 0 6.85547C0 7.14695 0.235863 7.38281 0.527344 7.38281H17.4727C17.7641 7.38281 18 7.14695 18 6.85547C18 3.07547 13.9433 0 9 0ZM5.11893 4.06424L4.06424 5.11893C3.85826 5.32491 3.52455 5.32494 3.31854 5.11893C3.11256 4.91295 3.11256 4.57921 3.31854 4.37323L4.37323 3.31854C4.57921 3.11256 4.91295 3.11256 5.11893 3.31854C5.32491 3.52452 5.32494 3.85826 5.11893 4.06424ZM8.31814 4.06424L7.26346 5.11893C7.05748 5.32491 6.72377 5.32494 6.51776 5.11893C6.31178 4.91295 6.31178 4.57921 6.51776 4.37323L7.57245 3.31854C7.77843 3.11256 8.11216 3.11256 8.31814 3.31854C8.52413 3.52452 8.52416 3.85826 8.31814 4.06424ZM11.4822 4.06424L10.4275 5.11893C10.2215 5.32491 9.88784 5.32494 9.68182 5.11893C9.47584 4.91295 9.47584 4.57921 9.68182 4.37323L10.7365 3.31854C10.9425 3.11256 11.2762 3.11256 11.4822 3.31854C11.6882 3.52452 11.6882 3.85826 11.4822 4.06424ZM14.3884 4.06424L13.3337 5.11893C13.1278 5.32491 12.7941 5.32494 12.588 5.11893C12.3821 4.91295 12.3821 4.57921 12.588 4.37323L13.6427 3.31854C13.8487 3.11256 14.1825 3.11256 14.3884 3.31854C14.5944 3.52452 14.5944 3.85826 14.3884 4.06424Z" fill="black"/>
<path d="M0.527344 9.52734C0.780469 9.52734 1.00195 9.55895 1.1918 9.61168C1.11737 9.85145 1.09652 9.92313 1.05469 10.6664C0.917578 10.6136 0.748863 10.582 0.527344 10.582C0.231996 10.582 0 10.35 0 10.0547C0 9.75934 0.231996 9.52734 0.527344 9.52734Z" fill="black"/>
<path d="M18 10.0547C18 10.35 17.768 10.582 17.4727 10.582C17.2511 10.582 17.0824 10.6136 16.9453 10.6664C16.9339 10.4639 16.9554 10.086 16.8082 9.61168C16.9981 9.55895 17.2195 9.52734 17.4727 9.52734C17.768 9.52734 18 9.75934 18 10.0547Z" fill="black"/>
<path d="M1.1918 9.61172C1.66641 9.72777 1.98282 9.9598 2.24649 10.1602C2.57344 10.4027 2.81599 10.5821 3.34333 10.5821C3.87067 10.5821 4.10274 10.4027 4.42969 10.1602C4.80938 9.87536 5.3086 9.52738 6.18399 9.52738C7.06989 9.52738 7.53395 9.87539 7.91364 10.1602C8.24067 10.4027 8.47266 10.5821 9.00001 10.5821C9.52735 10.5821 9.75935 10.4027 10.0864 10.1602C10.4661 9.87536 10.9301 9.52738 11.816 9.52738C12.6914 9.52738 13.1907 9.87539 13.5703 10.1602C13.8973 10.4027 14.1293 10.5821 14.6567 10.5821C15.184 10.5821 15.4266 10.4027 15.7535 10.1602C16.0172 9.95977 16.3336 9.72777 16.8082 9.61168C16.697 9.19726 16.5116 8.81508 16.2733 8.47266H1.72674C1.48838 8.81508 1.30304 9.19726 1.1918 9.61172Z" fill="black"/>
<path d="M16.2806 12.6914C16.6851 12.1141 16.9294 11.4174 16.9453 10.6664C16.7344 10.7402 16.5762 10.8668 16.3863 11.0039C16.0066 11.2887 15.5425 11.6367 14.6566 11.6367C13.7813 11.6367 13.3172 11.2886 12.9375 11.0039C12.6106 10.7613 12.3433 10.582 11.816 10.582C11.2886 10.582 11.0461 10.7613 10.7191 11.0039C10.35 11.2887 9.8754 11.6367 9 11.6367C8.12461 11.6367 7.64997 11.2886 7.28086 11.0039C6.95391 10.7613 6.71137 10.582 6.18402 10.582C5.65668 10.582 5.38946 10.7613 5.0625 11.0039C4.68282 11.2886 4.21875 11.6367 3.34333 11.6367C2.45743 11.6367 1.99336 11.2886 1.61368 11.0039C1.42376 10.8668 1.26559 10.7402 1.05466 10.6664C1.07055 11.4175 1.31485 12.1141 1.71936 12.6914H16.2806Z" fill="black"/>
</svg>
