<svg width="30" height="28" viewBox="0 0 30 28" fill="none" xmlns="http://www.w3.org/2000/svg">
<path d="M6.5625 18.5938C5.86718 18.5938 5.18747 18.7862 4.60933 19.1467C4.03118 19.5073 3.58058 20.0197 3.31449 20.6193C3.0484 21.2189 2.97878 21.8786 3.11443 22.5151C3.25008 23.1516 3.58491 23.7363 4.07658 24.1952C4.56825 24.6541 5.19467 24.9666 5.87664 25.0932C6.5586 25.2198 7.26548 25.1548 7.90787 24.9065C8.55027 24.6581 9.09934 24.2376 9.48564 23.698C9.87194 23.1584 10.0781 22.524 10.0781 21.875C10.0771 21.0051 9.70634 20.171 9.04726 19.5559C8.38818 18.9408 7.49458 18.5947 6.5625 18.5938ZM6.5625 23.625C6.19166 23.625 5.82915 23.5224 5.52081 23.3301C5.21247 23.1378 4.97214 22.8645 4.83023 22.5447C4.68831 22.2249 4.65118 21.8731 4.72353 21.5336C4.79588 21.1941 4.97445 20.8823 5.23668 20.6376C5.4989 20.3928 5.83299 20.2261 6.19671 20.1586C6.56042 20.0911 6.93742 20.1258 7.28003 20.2582C7.62264 20.3907 7.91548 20.615 8.12151 20.9028C8.32753 21.1905 8.4375 21.5289 8.4375 21.875C8.4375 22.3391 8.23996 22.7842 7.88833 23.1124C7.5367 23.4406 7.05978 23.625 6.5625 23.625Z" fill="#FF9029"/>
<path d="M24.375 18.5938C23.6796 18.5938 22.9999 18.7862 22.4218 19.1467C21.8437 19.5073 21.393 20.0197 21.127 20.6193C20.8609 21.2189 20.7912 21.8786 20.9269 22.5151C21.0625 23.1516 21.3974 23.7363 21.889 24.1952C22.3807 24.6541 23.0071 24.9666 23.6891 25.0932C24.3711 25.2198 25.0779 25.1548 25.7203 24.9065C26.3627 24.6581 26.9118 24.2376 27.2981 23.698C27.6844 23.1584 27.8906 22.524 27.8906 21.875C27.8895 21.0051 27.5188 20.171 26.8597 19.5559C26.2006 18.9408 25.307 18.5947 24.375 18.5938ZM24.375 23.625C24.0041 23.625 23.6416 23.5224 23.3333 23.3301C23.0249 23.1378 22.7846 22.8645 22.6427 22.5447C22.5008 22.2249 22.4637 21.8731 22.536 21.5336C22.6083 21.1941 22.7869 20.8823 23.0491 20.6376C23.3114 20.3928 23.6455 20.2261 24.0092 20.1586C24.3729 20.0911 24.7499 20.1258 25.0925 20.2582C25.4351 20.3907 25.7279 20.615 25.934 20.9028C26.14 21.1905 26.25 21.5289 26.25 21.875C26.25 22.3391 26.0524 22.7842 25.7008 23.1124C25.3492 23.4406 24.8723 23.625 24.375 23.625Z" fill="#FF9029"/>
<path d="M29.3311 16.4398C27.0043 15.5439 23.4375 14 23.4375 14L20.5967 9.69611C20.3993 9.46847 20.1498 9.28499 19.8665 9.15913C19.5832 9.03326 19.2733 8.96822 18.9596 8.96876H4.90881C4.42968 8.96725 3.95969 9.09107 3.55211 9.32616C3.14454 9.56126 2.81569 9.89823 2.60285 10.2989L0.506543 14.2121C0.32755 14.5462 0.234367 14.9146 0.234375 15.2881V20.5625C0.234375 21.0847 0.456612 21.5854 0.852197 21.9546C1.24778 22.3238 1.78431 22.5313 2.34375 22.5313H2.40346C2.30054 21.9664 2.33094 21.3874 2.49253 20.8347C2.65412 20.282 2.94301 19.7688 3.33902 19.331C3.73504 18.8932 4.22865 18.5414 4.7854 18.3C5.34215 18.0587 5.94863 17.9337 6.5625 17.9337C7.17637 17.9337 7.78285 18.0587 8.3396 18.3C8.89635 18.5414 9.38996 18.8932 9.78598 19.331C10.182 19.7688 10.4709 20.282 10.6325 20.8347C10.7941 21.3874 10.8245 21.9664 10.7215 22.5313H20.216C20.114 21.9742 20.1416 21.4032 20.2971 20.857C20.4525 20.3108 20.7321 19.8023 21.1168 19.3659C21.5015 18.9295 21.9824 18.5755 22.5267 18.328C23.071 18.0805 23.666 17.9452 24.2713 17.9313C24.8766 17.9175 25.478 18.0254 26.0347 18.2477C26.5913 18.4701 27.0902 18.8017 27.4974 19.2199C27.9045 19.6382 28.2105 20.1334 28.3944 20.6718C28.5783 21.2102 28.6359 21.7793 28.5633 22.3403C28.9232 22.1803 29.2272 21.9284 29.44 21.6137C29.6528 21.2991 29.7657 20.9346 29.7656 20.5625V17.0461C29.7657 16.9162 29.7244 16.7893 29.647 16.6813C29.5697 16.5734 29.4597 16.4893 29.3311 16.4398ZM3.53906 13.5212C3.46076 13.6653 3.34123 13.7863 3.19373 13.8708C3.04623 13.9553 2.87653 14 2.70346 14H1.79203C1.79203 14 3.28031 11.2472 3.83982 10.2504C3.89935 10.1442 3.98887 10.0553 4.09867 9.99329C4.20848 9.93126 4.33438 9.89846 4.46273 9.89845H5.03848C5.08845 9.89843 5.13761 9.91034 5.18126 9.93305C5.22491 9.95576 5.26162 9.98852 5.28788 10.0282C5.31414 10.0679 5.32908 10.1132 5.3313 10.1598C5.33351 10.2064 5.32291 10.2527 5.30051 10.2944L5.29816 10.2989C5.29816 10.2989 4.08305 12.5204 3.53906 13.5212ZM6.5625 16.4063H5.625C5.43852 16.4063 5.25968 16.3371 5.12782 16.2141C4.99595 16.091 4.92188 15.9241 4.92188 15.75C4.92188 15.576 4.99595 15.409 5.12782 15.286C5.25968 15.1629 5.43852 15.0938 5.625 15.0938H6.5625C6.74898 15.0938 6.92782 15.1629 7.05968 15.286C7.19155 15.409 7.26562 15.576 7.26562 15.75C7.26562 15.9241 7.19155 16.091 7.05968 16.2141C6.92782 16.3371 6.74898 16.4063 6.5625 16.4063ZM12.8906 13.3438C12.8906 13.5178 12.8166 13.6846 12.6848 13.8077C12.553 13.9307 12.3743 13.9999 12.1879 14H5.89453C5.77404 14 5.65559 13.971 5.55052 13.916C5.44546 13.8609 5.35732 13.7816 5.29455 13.6856C5.23179 13.5896 5.19651 13.4802 5.19209 13.3678C5.18767 13.2554 5.21427 13.1439 5.26934 13.0439C5.76264 12.1488 6.47707 10.8602 6.82758 10.2464C6.88747 10.1413 6.97683 10.0535 7.0861 9.9922C7.19537 9.93092 7.32043 9.89851 7.44791 9.89845H12.1875C12.374 9.89845 12.5528 9.96759 12.6847 10.0907C12.8165 10.2137 12.8906 10.3807 12.8906 10.5547V13.3438ZM16.875 16.4063H15.9961C15.8096 16.4063 15.6308 16.3371 15.4989 16.2141C15.367 16.091 15.293 15.9241 15.293 15.75C15.293 15.576 15.367 15.409 15.4989 15.286C15.6308 15.1629 15.8096 15.0938 15.9961 15.0938H16.875C17.0615 15.0938 17.2403 15.1629 17.3722 15.286C17.504 15.409 17.5781 15.576 17.5781 15.75C17.5781 15.9241 17.504 16.091 17.3722 16.2141C17.2403 16.3371 17.0615 16.4063 16.875 16.4063ZM15.7031 14C15.5166 14 15.3378 13.9309 15.2059 13.8078C15.0741 13.6847 15 13.5178 15 13.3438V10.5547C15 10.3807 15.0741 10.2137 15.2059 10.0907C15.3378 9.96759 15.5166 9.89845 15.7031 9.89845H19.5586L22.2656 14H15.7031Z" fill="#FF9029"/>
</svg>
