<svg width="26" height="26" viewBox="0 0 26 26" fill="none" xmlns="http://www.w3.org/2000/svg">
<g clip-path="url(#clip0)">
<path d="M25.1333 6.5H7.36667C7.12734 6.5 6.93333 6.69401 6.93333 6.93333C6.93333 7.17266 7.12734 7.36667 7.36667 7.36667H9.98617C8.06307 8.59037 6.90859 10.7207 6.93333 13C6.90859 15.2793 8.06307 17.4096 9.98617 18.6333H0.866667V7.36667H5.2C5.43932 7.36667 5.63333 7.17266 5.63333 6.93333C5.63333 6.69401 5.43932 6.5 5.2 6.5H0.866667C0.38802 6.5 0 6.88802 0 7.36667V18.6333C0 19.112 0.38802 19.5 0.866667 19.5H25.1333C25.612 19.5 26 19.112 26 18.6333V7.36667C26 6.88802 25.612 6.5 25.1333 6.5ZM7.8 13C7.8 9.89387 10.1326 7.36667 13 7.36667C15.8674 7.36667 18.2 9.89387 18.2 13C18.2 16.1061 15.8674 18.6333 13 18.6333C10.1326 18.6333 7.8 16.1061 7.8 13ZM25.1333 18.6333H16.0138C17.9369 17.4096 19.0914 15.2793 19.0667 13C19.0914 10.7207 17.9369 8.59037 16.0138 7.36667H25.1333V18.6333Z" fill="black"/>
<path d="M22.8523 1.82455C22.6471 1.72188 22.4096 1.70474 22.1919 1.77688L12.8579 4.90511C12.6305 4.98122 12.5079 5.22722 12.584 5.45458C12.6601 5.68193 12.9061 5.80455 13.1335 5.72844L22.4649 2.60021L23.4225 5.45544C23.4717 5.60252 23.5956 5.7122 23.7475 5.74317C23.8995 5.77413 24.0564 5.72169 24.1592 5.60558C24.262 5.48948 24.295 5.32735 24.2459 5.18028L23.2878 2.32678C23.2164 2.10743 23.0593 1.92628 22.8523 1.82455Z" fill="black"/>
<path d="M12.8665 20.2726L3.53513 23.4004L2.57746 20.5451C2.50148 20.3178 2.25557 20.1951 2.02821 20.271C1.80085 20.347 1.67814 20.5929 1.75413 20.8203L2.71049 23.6729C2.78137 23.8919 2.93762 24.073 3.14383 24.1752C3.2638 24.2348 3.39594 24.266 3.52993 24.2662C3.62308 24.2663 3.71566 24.2517 3.80423 24.2228L13.1382 21.0946C13.3656 21.0185 13.4882 20.7725 13.4121 20.5451C13.336 20.3178 13.09 20.1951 12.8626 20.2713L12.8665 20.2726Z" fill="black"/>
<path d="M14.3 11.4834C14.3 11.7228 14.494 11.9168 14.7333 11.9168C14.9727 11.9168 15.1667 11.7228 15.1667 11.4834C15.1248 10.5121 14.3961 9.70877 13.4333 9.57286V9.53343C13.4333 9.29411 13.2393 9.1001 13 9.1001C12.7607 9.1001 12.5667 9.29411 12.5667 9.53343V9.57286C11.604 9.70877 10.8752 10.5121 10.8333 11.4834C10.8752 12.4548 11.604 13.2581 12.5667 13.394V15.5334C12.0844 15.424 11.7317 15.0102 11.7 14.5168C11.7 14.2774 11.506 14.0834 11.2667 14.0834C11.0274 14.0834 10.8333 14.2774 10.8333 14.5168C10.8752 15.4881 11.604 16.2914 12.5667 16.4273V16.4668C12.5667 16.7061 12.7607 16.9001 13 16.9001C13.2393 16.9001 13.4333 16.7061 13.4333 16.4668V16.4273C14.3961 16.2914 15.1248 15.4881 15.1667 14.5168C15.1248 13.5454 14.3961 12.7421 13.4333 12.6062V10.4668C13.9156 10.5762 14.2683 10.99 14.3 11.4834ZM11.7 11.4834C11.7317 10.99 12.0844 10.5762 12.5667 10.4668V12.5C12.0844 12.3906 11.7317 11.9769 11.7 11.4834ZM14.3 14.5168C14.2683 15.0102 13.9156 15.424 13.4333 15.5334V13.5002C13.9156 13.6096 14.2683 14.0233 14.3 14.5168Z" fill="black"/>
<path d="M22.1 17.767H23.8333C24.0727 17.767 24.2667 17.573 24.2667 17.3337V15.6003C24.2667 15.361 24.0727 15.167 23.8333 15.167C23.594 15.167 23.4 15.361 23.4 15.6003V16.9003H22.1C21.8607 16.9003 21.6667 17.0943 21.6667 17.3337C21.6667 17.573 21.8607 17.767 22.1 17.767Z" fill="black"/>
<path d="M2.16667 15.167C1.92735 15.167 1.73334 15.361 1.73334 15.6003V17.3337C1.73334 17.573 1.92735 17.767 2.16667 17.767H3.9C4.13933 17.767 4.33334 17.573 4.33334 17.3337C4.33334 17.0943 4.13933 16.9003 3.9 16.9003H2.6V15.6003C2.6 15.361 2.40599 15.167 2.16667 15.167Z" fill="black"/>
<path d="M3.9 8.2334H2.16667C1.92735 8.2334 1.73334 8.42741 1.73334 8.66673V10.4001C1.73334 10.6394 1.92735 10.8334 2.16667 10.8334C2.40599 10.8334 2.6 10.6394 2.6 10.4001V9.10007H3.9C4.13933 9.10007 4.33334 8.90606 4.33334 8.66673C4.33334 8.42741 4.13933 8.2334 3.9 8.2334Z" fill="black"/>
<path d="M22.1 9.10007H23.4V10.4001C23.4 10.6394 23.594 10.8334 23.8333 10.8334C24.0727 10.8334 24.2667 10.6394 24.2667 10.4001V8.66673C24.2667 8.42741 24.0727 8.2334 23.8333 8.2334H22.1C21.8607 8.2334 21.6667 8.42741 21.6667 8.66673C21.6667 8.90606 21.8607 9.10007 22.1 9.10007Z" fill="black"/>
</g>
<defs>
<clipPath id="clip0">
<rect width="26" height="26" fill="white"/>
</clipPath>
</defs>
</svg>
