<svg width="29" height="29" viewBox="0 0 29 29" fill="none" xmlns="http://www.w3.org/2000/svg">
<path d="M6.84458 21.1976C5.05702 19.413 4.05516 16.9892 4.06126 14.4633C4.05603 12.4453 4.69525 10.4783 5.88588 8.84893C6.06186 8.61482 6.01473 8.28241 5.78062 8.10643C5.54651 7.93046 5.21411 7.97758 5.03813 8.21169C5.03501 8.21587 5.03197 8.22004 5.02898 8.22428C1.96323 12.439 2.41435 18.2567 6.09321 21.9484C6.30054 22.1559 6.63686 22.156 6.84432 21.9487C7.05178 21.7413 7.05192 21.405 6.84458 21.1976Z" fill="#504343"/>
<path d="M23.4441 8.1787C23.2666 7.96713 22.9513 7.93945 22.7397 8.11695C22.739 8.11751 22.7383 8.11813 22.7376 8.1187C22.5265 8.2967 22.4996 8.61207 22.6776 8.8232C25.6923 12.4019 25.4616 17.6938 22.1471 20.9967C21.9515 21.1916 21.9509 21.5083 22.1458 21.7039C22.3408 21.8996 22.6575 21.9001 22.8531 21.7052C26.5366 18.0356 26.7935 12.1555 23.4441 8.1787Z" fill="#504343"/>
<path d="M0 14.5C0 22.4953 6.50465 29 14.5 29C22.4953 29 29 22.4953 29 14.5C29 6.50465 22.4953 0 14.5 0C6.50465 0 0 6.50465 0 14.5ZM14.5 1.40138C21.7226 1.40138 27.5986 7.27747 27.5986 14.5C27.5986 21.7225 21.7226 27.5985 14.5 27.5985C7.27737 27.5985 1.40138 21.7225 1.40138 14.4999C1.40138 7.27728 7.27737 1.40138 14.5 1.40138Z" fill="#504343"/>
<path d="M13.6008 24.2468L13.2059 15.8927C13.1895 15.5918 13.0213 15.3334 12.7772 15.186V10.3419H12.8078C13.7409 10.3419 14.5 9.59529 14.5 8.67761C14.5 8.10203 14.5 3.96768 14.5 3.39255C14.5 3.16173 14.3098 2.97461 14.075 2.97461C13.8403 2.97461 13.6501 3.16173 13.6501 3.39255V7.75068H12.7772V3.39255C12.7772 3.16173 12.5869 2.97461 12.3522 2.97461C12.1175 2.97461 11.9272 3.16173 11.9272 3.39255V7.75068H11.1241V3.39255C11.1241 3.16173 10.9339 2.97461 10.6991 2.97461C10.4644 2.97461 10.2742 3.16173 10.2742 3.39255V7.75068H9.40118V3.39255C9.40118 3.16173 9.21097 2.97461 8.97623 2.97461C8.74148 2.97461 8.55127 3.16173 8.55127 3.39255V8.67761C8.55127 9.59529 9.31036 10.3419 10.2435 10.3419H10.2742V15.1862C10.0299 15.3337 9.86172 15.5929 9.84535 15.8956L9.45059 24.2455C9.38724 25.4171 10.3337 26.3977 11.5257 26.3977C12.7175 26.3976 13.6633 25.4175 13.6008 24.2468ZM9.40118 8.67761V8.58656H13.6501V8.67761C13.6501 9.13439 13.2722 9.50602 12.8078 9.50602C12.2328 9.50602 10.7858 9.50602 10.2435 9.50602C9.77906 9.50602 9.40118 9.13439 9.40118 8.67761ZM11.9272 10.3419V15.0553H11.1241V10.3419H11.9272ZM11.5257 25.5618C10.8239 25.5618 10.2617 24.9861 10.2994 24.287L10.6942 15.9372C10.6955 15.9114 10.7172 15.8912 10.7435 15.8912H10.7437L12.3096 15.8915C12.335 15.8925 12.3558 15.912 12.357 15.9344L12.7518 24.2871C12.7518 24.2881 12.7519 24.289 12.7519 24.2899C12.7895 24.9823 12.2302 25.5618 11.5257 25.5618Z" fill="#504343"/>
<path d="M19.9342 21.7997C19.9216 21.575 19.7189 21.4025 19.4838 21.4146C19.2477 21.4265 19.0664 21.6183 19.079 21.843L19.2188 24.3436C19.2565 25.0184 18.693 25.5831 17.9831 25.5831C17.2727 25.5831 16.7098 25.0179 16.7474 24.3436L17.1453 17.2282C17.1467 17.203 17.1685 17.1833 17.195 17.1833L18.7729 17.1836C18.7985 17.1845 18.8196 17.2036 18.8209 17.2282L18.9726 19.9422C18.9852 20.1669 19.1871 20.3399 19.423 20.3273C19.6591 20.3153 19.8404 20.1236 19.8278 19.8989L19.6761 17.1848C19.6596 16.8916 19.4902 16.6397 19.2442 16.4961V15.2401C19.6565 15.1398 19.9628 14.7844 19.9628 14.3613V3.99048C19.9628 3.66171 19.7945 3.35189 19.5125 3.16171C19.2305 2.97153 18.8674 2.92287 18.5412 3.03165C16.3465 3.76348 14.8718 5.74148 14.8718 7.9537V13.1219C14.8718 13.4504 15.0599 13.7544 15.3627 13.9151C15.6671 14.0768 15.8947 14.3384 16.0038 14.6519C16.1125 14.9645 16.3896 15.1895 16.722 15.2516V16.4961C16.4759 16.6398 16.3065 16.8916 16.2901 17.1849L15.8922 24.3003C15.8283 25.4422 16.782 26.3977 17.9831 26.3977C19.1852 26.3977 20.1377 25.4411 20.0739 24.3003L19.9342 21.7997ZM17.5785 15.2695H18.3878V16.3687H17.5785V15.2695ZM15.7802 13.2039C15.7482 13.1869 15.7283 13.1555 15.7283 13.122V7.95375C15.7283 6.08708 16.9726 4.41798 18.8246 3.80046C18.9143 3.77065 18.9838 3.80378 19.0172 3.82626C19.0505 3.84874 19.1064 3.8999 19.1064 3.99048V14.3614C19.1064 14.4129 19.0624 14.4549 19.0081 14.4549H18.816H17.1503H16.908C16.8664 14.4549 16.8289 14.4307 16.8169 14.3961C16.6405 13.8886 16.2722 13.4652 15.7802 13.2039Z" fill="#504343"/>
</svg>
