<svg width="19" height="19" viewBox="0 0 19 19" fill="none" xmlns="http://www.w3.org/2000/svg">
<path d="M7.75931 9.49995L0.361082 2.1015C-0.12038 1.62026 -0.12038 0.842167 0.361082 0.360929C0.842321 -0.12031 1.62042 -0.12031 2.10166 0.360929L9.5001 7.75938L16.8983 0.360929C17.3798 -0.12031 18.1577 -0.12031 18.6389 0.360929C19.1204 0.842167 19.1204 1.62026 18.6389 2.1015L11.2407 9.49995L18.6389 16.8984C19.1204 17.3796 19.1204 18.1577 18.6389 18.639C18.3991 18.879 18.0837 18.9996 17.7686 18.9996C17.4535 18.9996 17.1384 18.879 16.8983 18.639L9.5001 11.2405L2.10166 18.639C1.8616 18.879 1.54648 18.9996 1.23137 18.9996C0.916254 18.9996 0.601139 18.879 0.361082 18.639C-0.12038 18.1577 -0.12038 17.3796 0.361082 16.8984L7.75931 9.49995Z" fill="black"/>
</svg>
