<svg width="26" height="26" viewBox="0 0 26 26" fill="none" xmlns="http://www.w3.org/2000/svg">
<g clip-path="url(#clip0)">
<path d="M25.0073 4.80909L9.08359 1.43918C8.40988 1.29665 7.74212 1.7313 7.59959 2.40501L7.29706 4.34916L25.6704 8.23725L25.9729 6.2931C26.1154 5.61964 25.681 4.95167 25.0073 4.80909Z" fill="black"/>
<path d="M18.311 8.64959C18.125 7.97979 17.425 7.58388 16.7554 7.76958L13.7325 8.60877L6.60618 7.10059L5.82243 10.8037L0.925565 12.1628C0.256018 12.3486 -0.13989 13.0486 0.0458075 13.7181L2.80548 23.6627C2.99147 24.3322 3.69148 24.7284 4.36103 24.5425L20.1909 20.1495C20.8604 19.9635 21.2563 19.2638 21.0706 18.5939L20.597 16.8868L22.3723 17.2621C23.046 17.4049 23.7138 16.9702 23.8563 16.2965L24.9796 10.9887L18.5846 9.63548L18.311 8.64959ZM20.1391 13.7038L20.5306 11.8536C20.5894 11.5765 20.8641 11.3978 21.1411 11.4563L22.9913 11.8481C23.2686 11.9069 23.4473 12.1813 23.3888 12.4586L22.9973 14.3088C22.9385 14.5859 22.6639 14.7648 22.3868 14.7061L20.5366 14.3146C20.259 14.2556 20.0803 13.9809 20.1391 13.7038ZM1.20103 13.1552L5.58176 11.9399L15.9181 9.07154L17.0303 8.76251C17.0506 8.75703 17.0709 8.75444 17.0907 8.75444C17.1799 8.75444 17.2866 8.81299 17.3178 8.9251L17.4484 9.3954L17.8575 10.8698L1.5782 15.3873L1.03845 13.4429C1.00463 13.3209 1.07906 13.189 1.20103 13.1552ZM20.078 18.8691C20.0988 18.9446 20.0769 19.007 20.0548 19.046C20.033 19.085 19.9908 19.136 19.9154 19.1568L4.08582 23.5498C4.06581 23.5553 4.04525 23.5581 4.02545 23.5581C3.93623 23.5581 3.82956 23.4993 3.79837 23.3872L2.18874 17.5867L18.4681 13.0689L19.461 16.6463L20.078 18.8691Z" fill="black"/>
<path d="M6.64361 19.266C6.56765 18.9929 6.28254 18.8317 6.00941 18.9074L4.16072 19.4206C3.88785 19.4963 3.72632 19.7816 3.80228 20.0548L4.31523 21.9032C4.39119 22.1763 4.6763 22.3376 4.94943 22.2616L6.79812 21.7487C7.07125 21.673 7.23252 21.3876 7.15681 21.1145L6.64361 19.266Z" fill="black"/>
</g>
<defs>
<clipPath id="clip0">
<rect width="26" height="26" fill="white"/>
</clipPath>
</defs>
</svg>
