<svg width="30" height="31" viewBox="0 0 30 31" fill="none" xmlns="http://www.w3.org/2000/svg">
<rect width="30" height="31" fill="#F3F4F6"/>
<path d="M13.8029 7.14691H16.9784V7.68123H18.1251V7.07211C18.1253 6.48097 17.6446 6 17.0538 6H13.7275C13.1367 6 12.656 6.48097 12.656 7.07211V7.68123H13.8029V7.14691Z" fill="black"/>
<path d="M20.7733 12.2251H10.0076C9.71257 12.2251 9.48034 12.4767 9.50412 12.7709L10.4042 23.9002C10.4543 24.5215 10.9725 25 11.5951 25H19.1856C19.8082 25 20.3264 24.5215 20.3766 23.9001L21.2766 12.7709C21.3006 12.4767 21.0683 12.2251 20.7733 12.2251ZM12.6143 23.8129C12.6023 23.8137 12.5903 23.8141 12.5784 23.8141C12.2778 23.8141 12.0254 23.58 12.0067 23.2759L11.4426 14.1393C11.4232 13.8231 11.6637 13.551 11.9797 13.5316C12.2947 13.5125 12.568 13.7524 12.5874 14.0687L13.1513 23.2053C13.1708 23.5214 12.9304 23.7934 12.6143 23.8129ZM15.9703 23.2406C15.9703 23.5572 15.7136 23.8139 15.3968 23.8139C15.0801 23.8139 14.8234 23.5572 14.8234 23.2406V14.1039C14.8234 13.7872 15.0801 13.5304 15.3968 13.5304C15.7134 13.5304 15.9703 13.7872 15.9703 14.1039V23.2406ZM19.3382 14.1377L18.7997 23.2743C18.7819 23.579 18.5291 23.8139 18.2279 23.8139C18.2166 23.8139 18.2051 23.8137 18.1937 23.8131C17.8775 23.7944 17.6363 23.523 17.655 23.2069L18.1934 14.0701C18.2119 13.754 18.4824 13.5128 18.7994 13.5315C19.1156 13.55 19.3568 13.8215 19.3382 14.1377Z" fill="black"/>
<path d="M22.7565 10.4554L22.3799 9.32649C22.2806 9.02889 22.002 8.82812 21.6881 8.82812H9.09282C8.77913 8.82812 8.50038 9.02889 8.40123 9.32649L8.02462 10.4554C7.952 10.6732 8.04651 10.8952 8.22293 11.006C8.29483 11.0511 8.37992 11.0782 8.47341 11.0782H22.3077C22.4012 11.0782 22.4864 11.0511 22.5582 11.0058C22.7346 10.8951 22.8291 10.673 22.7565 10.4554Z" fill="black"/>
</svg>
