<svg width="30" height="31" viewBox="0 0 30 31" fill="none" xmlns="http://www.w3.org/2000/svg">
<rect width="30" height="31" fill="#F9FAFB"/>
<path d="M16.402 10.3917L8.43384 18.3599L12.6441 22.5701L20.6122 14.6019L16.402 10.3917Z" fill="black"/>
<path d="M22.7463 11.3879L19.6369 8.23439C19.3282 7.92565 18.843 7.92565 18.5563 8.21233C18.5563 8.21233 18.5563 8.21233 18.5343 8.23439L17.167 9.60166L21.3791 13.8358L22.7463 12.4685C23.0551 12.1598 23.0551 11.6746 22.7463 11.3879Z" fill="black"/>
<path d="M7.81678 19.2827L6.07461 23.9579C5.92024 24.3548 6.11872 24.7959 6.51567 24.9503C6.69209 25.0164 6.89057 25.0164 7.06699 24.9503L11.7422 23.186L7.81678 19.2827Z" fill="black"/>
</svg>
