<svg width="35" height="29" viewBox="0 0 35 29" fill="none" xmlns="http://www.w3.org/2000/svg">
<path d="M6.8768 15.7509C6.8768 21.476 11.5345 26.1337 17.2596 26.1337C22.9847 26.1337 27.6424 21.476 27.6424 15.7509C27.6424 10.0258 22.9847 5.36816 17.2596 5.36816C11.5345 5.36816 6.8768 10.0258 6.8768 15.7509ZM17.2596 6.37163C22.4314 6.37163 26.6389 10.5792 26.6389 15.7509C26.6389 20.9227 22.4314 25.1302 17.2596 25.1302C12.0878 25.1302 7.88027 20.9227 7.88027 15.7509C7.88027 10.5791 12.0878 6.37163 17.2596 6.37163Z" fill="#FB923C"/>
<path d="M5.96178 26.2716L5.49551 16.2425C5.47617 15.8813 5.27762 15.5711 4.98936 15.3941V9.57878H5.02548C6.12722 9.57878 7.02345 8.68248 7.02345 7.58081C7.02345 6.88983 7.02345 1.92656 7.02345 1.23611C7.02345 0.959017 6.79887 0.734375 6.52172 0.734375C6.24456 0.734375 6.01998 0.959017 6.01998 1.23611V6.46804H4.98936V1.23611C4.98936 0.959017 4.76478 0.734375 4.48763 0.734375C4.21047 0.734375 3.98589 0.959017 3.98589 1.23611V6.46804H3.03762V1.23611C3.03762 0.959017 2.81305 0.734375 2.53589 0.734375C2.25873 0.734375 2.03416 0.959017 2.03416 1.23611V6.46804H1.00346V1.23611C1.00346 0.959017 0.778889 0.734375 0.501732 0.734375C0.224575 0.734375 0 0.959017 0 1.23611V7.58081C0 8.68248 0.896227 9.57878 1.99796 9.57878H2.03416V15.3943C1.74576 15.5715 1.54721 15.8826 1.52787 16.246L1.0618 26.27C0.987007 27.6765 2.1044 28.8537 3.51179 28.8537C4.91898 28.8537 6.03557 27.677 5.96178 26.2716ZM1.00346 7.58081V7.4715H6.01998V7.58081C6.01998 8.12917 5.57384 8.57531 5.02548 8.57531C4.34667 8.57531 2.63817 8.57531 1.99796 8.57531C1.4496 8.57531 1.00346 8.12917 1.00346 7.58081ZM3.98589 9.57878V15.2372H3.03762V9.57878H3.98589ZM3.51179 27.8502C2.6832 27.8502 2.01944 27.1591 2.06399 26.3199L2.53007 16.296C2.53167 16.265 2.5573 16.2407 2.58827 16.2407H2.58854L4.43739 16.2411C4.46736 16.2423 4.49184 16.2657 4.49325 16.2926L4.95939 26.32C4.95946 26.3211 4.95952 26.3223 4.95959 26.3233C5.00388 27.1546 4.34353 27.8502 3.51179 27.8502Z" fill="#FB923C"/>
<path d="M15.8658 23.4066C16.1384 23.4558 16.3995 23.2749 16.4488 23.0022C16.4981 22.7295 16.3171 22.4685 16.0444 22.4191C12.8213 21.836 10.482 19.0313 10.482 15.7503C10.482 12.0131 13.5224 8.9727 17.2596 8.9727C20.9967 8.9727 24.0371 12.0131 24.0371 15.7503C24.0371 19.1023 21.5387 21.9865 18.2256 22.4591C17.9512 22.4982 17.7606 22.7523 17.7998 23.0266C17.8354 23.277 18.0501 23.4576 18.2958 23.4576C18.3194 23.4576 18.3433 23.4559 18.3673 23.4525C20.2039 23.1905 21.8914 22.2734 23.1187 20.8702C24.3579 19.4532 25.0406 17.6349 25.0406 15.7503C25.0406 11.4598 21.55 7.96924 17.2596 7.96924C12.9692 7.96924 9.47858 11.4598 9.47858 15.7503C9.47858 19.517 12.1648 22.737 15.8658 23.4066Z" fill="#FB923C"/>
<path d="M34.0842 23.1898C34.0694 22.9131 33.8319 22.7005 33.5565 22.7154C33.2798 22.7302 33.0674 22.9664 33.0822 23.2431L33.246 26.3236C33.2902 27.1548 32.6299 27.8505 31.7981 27.8505C30.9656 27.8505 30.3061 27.1542 30.3501 26.3236L30.8164 17.5584C30.818 17.5274 30.8436 17.5031 30.8747 17.5031L32.7235 17.5035C32.7536 17.5046 32.7782 17.5281 32.7798 17.5584L32.9575 20.9016C32.9723 21.1785 33.2088 21.3915 33.4852 21.376C33.7619 21.3613 33.9743 21.1251 33.9596 20.8483L33.7818 17.5049C33.7625 17.1437 33.564 16.8335 33.2757 16.6565V15.1094C33.7589 14.9858 34.1177 14.548 34.1177 14.0268V1.25141C34.1177 0.846412 33.9205 0.464761 33.5901 0.230486C33.2597 -0.00378962 32.8342 -0.0637296 32.452 0.0702663C29.8804 0.971779 28.1525 3.40839 28.1525 6.13353V12.5C28.1525 12.9047 28.3729 13.2791 28.7277 13.4771C29.0844 13.6763 29.3511 13.9986 29.4788 14.3848C29.6063 14.7698 29.9309 15.047 30.3204 15.1235V16.6566C30.0321 16.8335 29.8335 17.1438 29.8143 17.5051L29.3481 26.2703C29.2732 27.6769 30.3907 28.8539 31.7981 28.8539C33.2066 28.8539 34.3227 27.6756 34.2479 26.2702L34.0842 23.1898ZM31.324 15.1455H32.2723V16.4997H31.324V15.1455ZM29.2169 12.6011C29.1793 12.5801 29.1561 12.5414 29.1561 12.5001V6.1336C29.1561 3.83413 30.614 1.77803 32.7841 1.01734C32.8892 0.980609 32.9706 1.02142 33.0097 1.04911C33.0488 1.07681 33.1143 1.13983 33.1143 1.25141V14.0268C33.1143 14.0904 33.0627 14.142 32.9991 14.142H32.774H30.8223H30.5384C30.4896 14.142 30.4457 14.1123 30.4316 14.0697C30.2249 13.4444 29.7934 12.9229 29.2169 12.6011Z" fill="#FB923C"/>
</svg>
