<svg width="21" height="21" viewBox="0 0 21 21" fill="none" xmlns="http://www.w3.org/2000/svg">
<path d="M10.5 5.25C7.60195 5.25 5.24994 7.60201 5.24994 10.5C5.24994 13.398 7.60195 15.75 10.5 15.75C13.398 15.75 15.75 13.398 15.75 10.5C15.75 7.60196 13.398 5.25 10.5 5.25Z" fill="black"/>
<path d="M10.5 0C4.69876 0 0 4.69876 0 10.5C0 16.3012 4.69876 21 10.5 21C16.3012 21 21 16.3012 21 10.5C21 4.69871 16.3012 0 10.5 0ZM10.5 18.9C5.859 18.9 2.09997 15.141 2.09997 10.5C2.09997 5.85895 5.859 2.10001 10.5 2.10001C15.141 2.10001 18.9 5.859 18.9 10.5C18.9 15.141 15.141 18.9 10.5 18.9Z" fill="black"/>
</svg>
