<svg width="20" height="33" viewBox="0 0 20 33" fill="none" xmlns="http://www.w3.org/2000/svg">
<path d="M0.755094 17.5615L15.2416 31.6463C15.5766 31.9723 16.0203 32.1483 16.4906 32.1417C16.9609 32.1351 17.3994 31.9467 17.7251 31.6114L18.7624 30.5448C19.4374 29.8498 19.4217 28.7359 18.7275 28.0612L6.56285 16.2337L18.4035 4.05557C18.7293 3.72026 18.9055 3.27688 18.8989 2.80684C18.8923 2.33628 18.7037 1.89803 18.3686 1.57174L17.3018 0.535001C16.9665 0.208975 16.5231 0.033001 16.0528 0.0396097C15.5825 0.0462183 15.144 0.234584 14.8182 0.5699L0.720074 15.0694C0.39354 15.4057 0.217855 15.8512 0.225516 16.322C0.231112 16.7947 0.419241 17.2347 0.755094 17.5615Z" fill="#2FB423"/>
</svg>
