<svg width="51" height="51" viewBox="0 0 51 51" fill="none" xmlns="http://www.w3.org/2000/svg">
<g clip-path="url(#clip0)">
<path d="M11.4149 49.9682C10.8561 49.9682 10.3013 49.7939 9.82773 49.4515C8.94563 48.8121 8.53356 47.7133 8.77364 46.653L12.0546 32.2003L0.927645 22.4422C0.109738 21.7282 -0.202716 20.5975 0.133085 19.5628C0.468886 18.5301 1.38251 17.799 2.46424 17.699L17.1866 16.3624L23.0072 2.74085C23.4364 1.74006 24.4139 1.09375 25.4999 1.09375C26.5859 1.09375 27.5633 1.74006 27.9925 2.73851L33.8132 16.3624L48.5332 17.699C49.6172 17.7966 50.5309 18.5301 50.8667 19.5628C51.2025 20.5955 50.892 21.7282 50.0741 22.4422L38.9471 32.1984L42.2281 46.6506C42.4685 47.7133 42.0561 48.8121 41.1744 49.4495C40.2946 50.0869 39.1214 50.1359 38.1949 49.5791L25.4999 41.9926L12.8048 49.5834C12.3756 49.8382 11.8974 49.9682 11.4149 49.9682ZM25.4999 38.7245C25.9824 38.7245 26.4602 38.8541 26.8898 39.1089L38.8708 46.2748L35.7743 32.6338C35.5533 31.6629 35.8829 30.6493 36.6331 29.9925L47.1394 20.7784L33.2393 19.5161C32.2385 19.4247 31.3778 18.7955 30.9867 17.8733L25.4999 5.01869L20.0064 17.8752C19.6197 18.7912 18.759 19.4204 17.7605 19.5118L3.85841 20.7741L14.3644 29.9882C15.1169 30.647 15.4461 31.6587 15.2231 32.6318L12.1289 46.2724L24.11 39.1089C24.5392 38.8541 25.0174 38.7245 25.4999 38.7245ZM17.0741 16.6258C17.0741 16.6258 17.0741 16.6282 17.0718 16.6301L17.0741 16.6258ZM33.9214 16.6196L33.9237 16.6239C33.9237 16.6215 33.9237 16.6215 33.9214 16.6196Z" fill="#97D991"/>
</g>
<defs>
<clipPath id="clip0">
<rect width="51" height="51" fill="white"/>
</clipPath>
</defs>
</svg>
