<svg width="53" height="53" viewBox="0 0 53 53" fill="none" xmlns="http://www.w3.org/2000/svg">
<g clip-path="url(#clip0)">
<path d="M52.8614 20.3284C52.5124 19.2553 51.5605 18.4955 50.4388 18.394L35.1393 17.005L29.0928 2.84897C28.6464 1.80894 27.6306 1.1377 26.5 1.1377C25.3694 1.1377 24.3533 1.80894 23.9097 2.84897L17.8632 17.005L2.56125 18.394C1.43954 18.4975 0.489687 19.2573 0.138699 20.3284C-0.210268 21.4016 0.11201 22.5787 0.960368 23.3228L12.5256 33.4638L9.11559 48.4827C8.8661 49.5871 9.29473 50.729 10.211 51.3913C10.7035 51.7492 11.2822 51.9279 11.8628 51.9279C12.3618 51.9279 12.8612 51.7953 13.3072 51.5284L26.5 43.6401L39.6904 51.5284C40.6581 52.1067 41.8748 52.0537 42.7891 51.3913C43.7054 50.729 44.134 49.5871 43.8845 48.4827L40.4745 33.4638L52.0397 23.3228C52.8877 22.5787 53.2103 21.404 52.8614 20.3284Z" fill="#97D991"/>
</g>
<defs>
<clipPath id="clip0">
<rect width="53" height="53" fill="white"/>
</clipPath>
</defs>
</svg>
